# xmcd
#
# Track frame offsets: 
#        150
#        17365
#        38216
#        55119
#        74297
#        88604
#        108194
#        125656
#        141475
#        157433
#        174487
#        190551
#        206175
#        222453
#        244482
#
# Disc length: 3445 seconds
#
# Revision: 0
# Processed by: cddbd v1.5.2PL0 Copyright (c) Steve Scherf et al.
# Submitted via: ExactAudioCopy v0.95b3
#
DISCID=e20d730f
DTITLE=Natalie - Everything New
DYEAR=2006
DGENRE=R&B
TTITLE0=What You Gonna Do?
TTITLE1=All Of My Life
TTITLE2=My Candy
TTITLE3=Pieces
TTITLE4=Dance With Me
TTITLE5=Call Me Up
TTITLE6=If You Only Knew
TTITLE7=Heartbreaker
TTITLE8=Slow Dance
TTITLE9=Turnin' Me On
TTITLE10=When I Was With You
TTITLE11=Everything New
TTITLE12=Love You So
TTITLE13=Goin' Crazy
TTITLE14=Secrets
EXTD=
EXTT0=
EXTT1=
EXTT2=
EXTT3=
EXTT4=
EXTT5=
EXTT6=
EXTT7=
EXTT8=
EXTT9=
EXTT10=
EXTT11=
EXTT12=
EXTT13=
EXTT14=
PLAYORDER=
